<svg id="Layer_1" data-name="Layer 1" xmlns="http://www.w3.org/2000/svg" viewBox="0 0 260 43.93"><defs><style>.cls-1{fill:#488eff;}.cls-2{font-size:11px;fill:#f2f7fc;font-family:MyriadPro-Bold, Myriad Pro;font-weight:700;}</style></defs><g id="_27e7ebd9-c94d-43c4-b40a-b25954ea55b9" data-name="27e7ebd9-c94d-43c4-b40a-b25954ea55b9"><path class="cls-1" d="M7.38,22.51c0-2,3-3.2,6.93-3.2a23.08,23.08,0,0,1,10.36,2.57c1.89,1.08,1.66-4.87-.14-5.72a24.7,24.7,0,0,0-10.71-2.3C6.71,13.86,0,16.61,0,22.69,0,29.3,6.93,30.2,12.42,31.1c3.65.54,6.67,1,6.67,3.24,0,2.43-3.2,3.74-7.3,3.74A22.52,22.52,0,0,1,1.44,35.51c-2-.94-1.67,5.27.09,6.17a27,27,0,0,0,11,2.25c7.11,0,13.91-2.83,13.91-9.45,0-7.25-7-8.06-12.52-8.87C10.35,25.12,7.38,24.58,7.38,22.51ZM52.8,35.87c-5.9,3.43-9.45,2.26-9.45-3.64V21.74h9.9c2.52,0,2.52-6.48,0-6.48h-9.9V7.83c0-2.38-5.86-2.38-6.17-.58l-1.26,8H32.09c-2.52,0-2.52,6.48,0,6.48h3.83V32c0,11.52,8.82,14.36,16.88,9.9C55,40.56,54.91,34.75,52.8,35.87ZM64.37,9.09c2.52,0,4.27-1.75,4.27-4.59A4.32,4.32,0,1,0,60,4.5C60,7.34,61.71,9.09,64.37,9.09ZM69.5,37a1.19,1.19,0,0,1-.54.13c-.63,0-.95-.49-.95-1.3V14.72c0-3-7.42.09-7.42,3.15V37.63c0,4.41,2.11,6.26,5,6.26a9.3,9.3,0,0,0,4-1C72.15,41.59,72.15,35.87,69.5,37Zm6.21-8.06c0,10.13,6.3,15,15.44,15a14.92,14.92,0,0,0,9-2.83c1.71-1.4,1.71-7.48-.58-6a13.65,13.65,0,0,1-7.48,2.39c-4.81,0-9-1.89-9-8.51s4.23-8.64,9-8.64a13.69,13.69,0,0,1,7.48,2.48c2.2,1.48,2.29-4.69.58-6.13a14.35,14.35,0,0,0-9-2.83C82,13.82,75.71,18.59,75.71,28.94Zm37.36-6.43c0-2,3-3.2,6.93-3.2a22.73,22.73,0,0,1,10.31,2.57C132.2,23,132,17,130.22,16.16a24.73,24.73,0,0,0-10.71-2.3c-7.16,0-13.82,2.75-13.82,8.83,0,6.61,6.93,7.51,12.42,8.41,3.65.54,6.66,1,6.66,3.24,0,2.43-3.19,3.74-7.29,3.74a22.49,22.49,0,0,1-10.35-2.57c-2-.94-1.71,5.27.09,6.17a27,27,0,0,0,11,2.25c7.11,0,13.91-2.83,13.91-9.45,0-7.25-7-8.06-12.56-8.87C116,25.12,113.07,24.58,113.07,22.51Zm45.42,13.36c-5.9,3.43-9.46,2.26-9.46-3.64V21.74h9.91c2.52,0,2.52-6.48,0-6.48H149V7.83c0-2.38-5.85-2.38-6.16-.58l-1.26,8h-3.83c-2.52,0-2.52,6.48,0,6.48h3.83V32c0,11.52,8.82,14.36,16.88,9.9C160.65,40.56,160.56,34.75,158.49,35.87Zm36.95,1a3.23,3.23,0,0,1-1.39.27c-1.22,0-1.85-.94-1.85-3.51V25.84c0-8.92-4.91-12-12.6-12-6.35,0-10.09,1.26-12.74,3.47-2.07,1.67-1.62,6.39.54,5a20.12,20.12,0,0,1,9.95-2.56c5.26,0,7.47,1.75,7.47,7v.32c-1.94-1-4.82-1.62-8.87-1.62-6.75,0-11.07,3.64-11.07,9.27s4.09,9.18,10.4,9.18a15,15,0,0,0,10.3-3.64,5.16,5.16,0,0,0,5.14,3.51,13.16,13.16,0,0,0,4.72-1C198.14,41.59,198.14,35.87,195.44,36.86Zm-18.18,1.22c-3.65,0-4.95-1.71-4.95-3.51s1.44-3.69,5.35-3.69c3.65,0,6,.63,7.16,1.48v2.52A9.79,9.79,0,0,1,177.26,38.08Zm23.09-9.14c0,10.13,6.3,15,15.44,15a14.94,14.94,0,0,0,9-2.83c1.71-1.4,1.71-7.48-.59-6a13.65,13.65,0,0,1-7.47,2.39c-4.81,0-9-1.89-9-8.51s4.19-8.64,9-8.64a13.69,13.69,0,0,1,7.47,2.48c2.21,1.48,2.3-4.69.59-6.13a14.37,14.37,0,0,0-9-2.83C206.65,13.82,200.35,18.59,200.35,28.94Zm57.52,8c-3.78,1.31-5.67-1.53-7.51-4.5a26.51,26.51,0,0,0-2.57-3.82,102.11,102.11,0,0,0,11.93-12.79c1.89-2.38-6.3-2.47-8.28,0a69.82,69.82,0,0,1-11.84,11.8V1.53c0-3-7.38.18-7.38,3.15V42c0,2.52,7.38,2.52,7.38,0v-6.8c1.21-.9,2.25-1.71,3.42-2.56a52.67,52.67,0,0,1,3.2,4.45c2.65,4.24,5.4,8.33,11.83,6.13C260.71,42.31,260.39,36,257.87,37Z"/></g><text class="cls-2" transform="translate(102.07 4.31)">|<tspan x="0" y="13.2">|</tspan><tspan x="0" y="26.4">|</tspan><tspan x="0" y="39.6">|</tspan></text></svg>